HIERARCHY
ROOT Hips
{
	OFFSET -14.64140 90.27770 -84.91600
	CHANNELS 6 Xposition Yposition Zposition Zrotation Xrotation Yrotation
	JOINT Spine
	{
		OFFSET 0.00000 13.20850 -1.60436
		CHANNELS 3 Zrotation Xrotation Yrotation
		JOINT Spine1
		{
			OFFSET 0.00000 8.61716 0.00000
			CHANNELS 3 Zrotation Xrotation Yrotation
			JOINT Spine2
			{
				OFFSET 0.00000 8.61717 0.00000
				CHANNELS 3 Zrotation Xrotation Yrotation
				JOINT Spine3
				{
					OFFSET 0.00000 8.61717 0.00000
					CHANNELS 3 Zrotation Xrotation Yrotation
					JOINT Neck
					{
						OFFSET 0.00000 11.07920 1.10792
						CHANNELS 3 Zrotation Xrotation Yrotation
						JOINT Neck1
						{
							OFFSET 0.00000 7.08032 0.00000
							CHANNELS 3 Zrotation Xrotation Yrotation
							JOINT Head
							{
								OFFSET 0.00000 7.08031 0.00000
								CHANNELS 3 Zrotation Xrotation Yrotation
								End site
								{
									OFFSET 0.00000 0.00000 0.00000
								}
							}
						}
					}
					JOINT RightShoulder
					{
						OFFSET -0.01000 7.91373 5.19711
						CHANNELS 3 Zrotation Xrotation Yrotation
						JOINT RightArm
						{
							OFFSET -18.41580 0.00000 0.00000
							CHANNELS 3 Zrotation Xrotation Yrotation
							JOINT RightForeArm
							{
								OFFSET -29.11090 0.00000 0.00000
								CHANNELS 3 Zrotation Xrotation Yrotation
								JOINT RightHand
								{
									OFFSET -24.65040 0.00000 0.00000
									CHANNELS 3 Zrotation Xrotation Yrotation
									JOINT RightHandThumb1
									{
										OFFSET -5.35114 -0.85590 3.97906
										CHANNELS 3 Zrotation Xrotation Yrotation
										JOINT RightHandThumb2
										{
											OFFSET -4.52789 0.00000 0.00000
											CHANNELS 3 Zrotation Xrotation Yrotation
											JOINT RightHandThumb3
											{
												OFFSET -2.46976 0.00000 0.00000
												CHANNELS 3 Zrotation Xrotation Yrotation
												End site
												{
													OFFSET 0.00000 0.00000 0.00000
												}
											}
										}
									}
									JOINT RightHandIndex1
									{
										OFFSET -14.26970 0.00000 2.88139
										CHANNELS 3 Zrotation Xrotation Yrotation
										JOINT RightHandIndex2
										{
											OFFSET -5.48836 0.00000 0.00000
											CHANNELS 3 Zrotation Xrotation Yrotation
											JOINT RightHandIndex3
											{
												OFFSET -3.01859 0.00000 0.00000
												CHANNELS 3 Zrotation Xrotation Yrotation
												End site
												{
													OFFSET 0.00000 0.00000 0.00000
												}
											}
										}
									}
									JOINT RightHandMiddle1
									{
										OFFSET -14.26970 0.00000 -0.09147
										CHANNELS 3 Zrotation Xrotation Yrotation
										JOINT RightHandMiddle2
										{
											OFFSET -6.17441 0.00000 0.00000
											CHANNELS 3 Zrotation Xrotation Yrotation
											JOINT RightHandMiddle3
											{
												OFFSET -3.56743 0.00000 0.00000
												CHANNELS 3 Zrotation Xrotation Yrotation
												End site
												{
													OFFSET 0.00000 0.00000 0.00000
												}
											}
										}
									}
									JOINT RightHandRing1
									{
										OFFSET -12.69180 0.00000 -3.06433
										CHANNELS 3 Zrotation Xrotation Yrotation
										JOINT RightHandRing2
										{
											OFFSET -5.62556 0.00000 0.00000
											CHANNELS 3 Zrotation Xrotation Yrotation
											JOINT RightHandRing3
											{
												OFFSET -3.56744 0.00000 0.00000
												CHANNELS 3 Zrotation Xrotation Yrotation
												End site
												{
													OFFSET 0.00000 0.00000 0.00000
												}
											}
										}
									}
									JOINT RightHandPinky1
									{
										OFFSET -11.11390 0.00000 -6.03719
										CHANNELS 3 Zrotation Xrotation Yrotation
										JOINT RightHandPinky2
										{
											OFFSET -4.52789 0.00000 0.00000
											CHANNELS 3 Zrotation Xrotation Yrotation
											JOINT RightHandPinky3
											{
												OFFSET -2.46976 0.00000 0.00000
												CHANNELS 3 Zrotation Xrotation Yrotation
												End site
												{
													OFFSET 0.00000 0.00000 0.00000
												}
											}
										}
									}
								}
							}
						}
					}
					JOINT LeftShoulder
					{
						OFFSET 0.01000 7.91373 5.19711
						CHANNELS 3 Zrotation Xrotation Yrotation
						JOINT LeftArm
						{
							OFFSET 18.41580 0.00000 0.00000
							CHANNELS 3 Zrotation Xrotation Yrotation
							JOINT LeftForeArm
							{
								OFFSET 29.11090 0.00000 0.00000
								CHANNELS 3 Zrotation Xrotation Yrotation
								JOINT LeftHand
								{
									OFFSET 24.65040 0.00000 0.00000
									CHANNELS 3 Zrotation Xrotation Yrotation
									JOINT LeftHandThumb1
									{
										OFFSET 5.35114 -0.85590 3.97906
										CHANNELS 3 Zrotation Xrotation Yrotation
										JOINT LeftHandThumb2
										{
											OFFSET 4.52789 0.00000 0.00000
											CHANNELS 3 Zrotation Xrotation Yrotation
											JOINT LeftHandThumb3
											{
												OFFSET 2.46977 0.00000 0.00000
												CHANNELS 3 Zrotation Xrotation Yrotation
												End site
												{
													OFFSET 0.00000 0.00000 0.00000
												}
											}
										}
									}
									JOINT LeftHandIndex1
									{
										OFFSET 14.26970 0.00000 2.88139
										CHANNELS 3 Zrotation Xrotation Yrotation
										JOINT LeftHandIndex2
										{
											OFFSET 5.48836 0.00000 0.00000
											CHANNELS 3 Zrotation Xrotation Yrotation
											JOINT LeftHandIndex3
											{
												OFFSET 3.01859 0.00000 0.00000
												CHANNELS 3 Zrotation Xrotation Yrotation
												End site
												{
													OFFSET 0.00000 0.00000 0.00000
												}
											}
										}
									}
									JOINT LeftHandMiddle1
									{
										OFFSET 14.26970 0.00000 -0.09147
										CHANNELS 3 Zrotation Xrotation Yrotation
										JOINT LeftHandMiddle2
										{
											OFFSET 6.17440 0.00000 0.00000
											CHANNELS 3 Zrotation Xrotation Yrotation
											JOINT LeftHandMiddle3
											{
												OFFSET 3.56744 0.00000 0.00000
												CHANNELS 3 Zrotation Xrotation Yrotation
												End site
												{
													OFFSET 0.00000 0.00000 0.00000
												}
											}
										}
									}
									JOINT LeftHandRing1
									{
										OFFSET 12.69180 0.00000 -3.06433
										CHANNELS 3 Zrotation Xrotation Yrotation
										JOINT LeftHandRing2
										{
											OFFSET 5.62556 0.00000 0.00000
											CHANNELS 3 Zrotation Xrotation Yrotation
											JOINT LeftHandRing3
											{
												OFFSET 3.56744 0.00000 0.00000
												CHANNELS 3 Zrotation Xrotation Yrotation
												End site
												{
													OFFSET 0.00000 0.00000 0.00000
												}
											}
										}
									}
									JOINT LeftHandPinky1
									{
										OFFSET 11.11390 0.00000 -6.03719
										CHANNELS 3 Zrotation Xrotation Yrotation
										JOINT LeftHandPinky2
										{
											OFFSET 4.52789 0.00000 0.00000
											CHANNELS 3 Zrotation Xrotation Yrotation
											JOINT LeftHandPinky3
											{
												OFFSET 2.46976 0.00000 0.00000
												CHANNELS 3 Zrotation Xrotation Yrotation
												End site
												{
													OFFSET 0.00000 0.00000 0.00000
												}
											}
										}
									}
								}
							}
						}
					}
					JOINT pCube4
					{
						OFFSET 0.00000 10.91090 1.10792
						CHANNELS 3 Zrotation Xrotation Yrotation
						End site
						{
							OFFSET 0.00000 0.00000 0.00000
						}
					}
				}
			}
		}
	}
	JOINT RightUpLeg
	{
		OFFSET -9.98441 0.00000 0.00000
		CHANNELS 3 Zrotation Xrotation Yrotation
		JOINT RightLeg
		{
			OFFSET 0.00000 -42.11790 0.00000
			CHANNELS 3 Zrotation Xrotation Yrotation
			JOINT RightFoot
			{
				OFFSET 0.00000 -45.00020 -0.00001
				CHANNELS 3 Zrotation Xrotation Yrotation
				JOINT RightForeFoot
				{
					OFFSET 0.00000 -3.74820 0.00000
					CHANNELS 3 Zrotation Xrotation Yrotation
					JOINT RightToeBase
					{
						OFFSET 0.00000 0.06325 14.43120
						CHANNELS 3 Zrotation Xrotation Yrotation
						End site
						{
							OFFSET 0.00000 0.00000 0.00000
						}
					}
				}
			}
		}
	}
	JOINT LeftUpLeg
	{
		OFFSET 9.98441 0.00000 0.00000
		CHANNELS 3 Zrotation Xrotation Yrotation
		JOINT LeftLeg
		{
			OFFSET 0.00000 -42.11800 0.00000
			CHANNELS 3 Zrotation Xrotation Yrotation
			JOINT LeftFoot
			{
				OFFSET 0.00000 -45.00070 0.00000
				CHANNELS 3 Zrotation Xrotation Yrotation
				JOINT LeftForeFoot
				{
					OFFSET 0.00000 -3.74824 0.00000
					CHANNELS 3 Zrotation Xrotation Yrotation
					JOINT LeftToeBase
					{
						OFFSET 0.00000 0.06325 14.43110
						CHANNELS 3 Zrotation Xrotation Yrotation
						End site
						{
							OFFSET 0.00000 0.00000 0.00000
						}
					}
				}
			}
		}
	}
}
MOTION
Frames: 4
Frame Time: 0.050000
-0.03722279038195697 -0.029263441325952613 -0.040966798834286625 -0.03214793562866688 -0.04097503798210677 0.02664030850420314 3.5673476405266418 4.647539778807607 -1.8663860099259901 -0.8372012942650906 3.4870815831379423 0.3478721101913604 -0.6076432468765246 -0.6324430853718411 -0.3966805499301878 -0.4967624925734388 -0.1833665769564189 -0.5328113785574058 -0.816329462427184 11.01984691278639 0.5039973817158295 -0.03861772050418405 -1.298990005674249 1.2521421391782395 -0.01542177345541347 -17.75903711243735 0.05571017420604853 -7.293668357298875 2.9634483517578953 -15.967487156875976 76.17471907409212 -0.7596019613706846 6.149557099383234 7.779533215655537 3.1883407890500166 86.58833880537586 8.912871030508805 -0.16890556639150725 -2.341681728482446 4.577804488289916 -0.14607257661298487 -1.5917675884909486 -0.01843092790503862 -0.030337070267809803 -56.227489761102 -0.03963040036217447 0.035510266252066346 -56.20205839782248 -38.7199521909686 -0.03932370913469775 0.014232736944200733 -0.016267244329671696 -0.016426024800932137 -0.016665052990608796 0.04943529910946109 -0.048812130777975395 0.0041548961125360715 -36.71883662646045 -0.0013997676738188808 -0.029386360661237593 -0.015641737517197014 0.04809689832173817 -0.04262658207505678 0.04251709248110071 -0.020293695089487956 -0.03322579678166697 -19.726524686062817 0.01364474174167537 0.017903706393866452 0.012552001855838659 0.03037907232225569 -0.029060406242342404 0.03937228306337515 0.032105378704342005 -0.006680992681019632 24.028303373041453 -0.02989909254849831 -0.04295866301300464 28.881020021777598 -0.006850388339376389 0.0285201942365182 28.895623948750462 0.020120460362285507 -0.004048657005417651 9.53384668384033 2.3911432266315913 13.404670769458834 -68.59515066088463 19.003783937628935 -21.816442482269995 -6.213672876647419 -2.751370945323335 -88.22970419507617 -7.735344461546131 -3.0747713536289987 0.10185541499035489 -0.4319258666603708 0.028212264180942616 -8.116221932645603 -0.030199648179303307 0.0485697196354944 44.53276763800357 -0.021278417439400708 0.04405781520000154 44.596105751484664 12.449858208425706 0.040259211330123904 0.02458099325954403 -0.034117855322509265 0.015533480859061106 0.018225357876101723 -0.015730020595003502 0.017631478806016006 0.00017306144619551808 11.11057815291908 -0.01968419765738439 0.022992609097565953 0.009725574710972969 0.025374519768426165 -0.04512525786668442 0.02168466101335087 0.019337137440920225 -0.01106592894236505 4.725665058141652 0.035140932342496475 0.04480813264711214 0.008559584618774709 0.03734373660412549 0.013356016352334243 -0.029356169929304843 0.007848545002776307 -0.014020804876424176 -5.632125977633639 -0.00924702462613793 -0.04988972023020516 -6.744699387645658 -0.036182697931208756 0.00880474328468999 -6.690084147970434 0.019118897425857515 -0.0039275739690104484 -0.030462977068622256 0.049619867798929185 -0.0355571048820996 8.027275416967719 3.462434981179183 -19.18504259842166 -0.020008533780927634 10.371346029942107 0.029920639419052365 -5.670003755804358 -15.643271892626347 3.1452165971565096 -0.01632400016653439 -0.04463557326185761 0.0054269149698226455 0.016279039629599402 4.731345758929818 -0.006951632078779172 12.477078307663831 -8.247513996964015 6.8475979594764915 -0.0335382171464535 46.339093702875616 0.04104164323988542 -4.290815571319812 -14.729237909841356 -3.8332399893556066 0.031071631732545266 -0.03240843645871091 -0.03460966112784926 0.02138188612413458 -10.72350863702703 -0.02105904425057516 
0.04761870039101714 0.01282798962716078 0.013114490918169009 -0.029029832112889033 -0.022902712743065087 -0.049735222029785274 3.5250645485919567 4.588721687534451 -1.8429913462593317 -0.8240069395471861 3.535201225871461 0.36073566045858885 -0.5805056029076953 -0.6083051163818438 -0.37917226316081015 -0.3634962493486467 -0.22586526608322816 -0.5226303619841184 -0.7765647495914012 11.161025190005052 0.3474999766432975 -0.036239477055782836 -1.0991223533036776 0.8620704702216213 -0.04589200803772847 -17.43040472227356 0.025634433393368565 -7.188930602012875 2.9273423649448103 -16.02444393824928 75.29265512794022 -0.24841188697296568 7.210691647328006 8.290296660745112 3.5368617340933635 86.62906546195131 9.373108410867683 -0.16550235942765434 -2.3808771027384803 4.5204672604641285 -0.13036718687977505 -1.5491338670936647 -0.0485442036778237 -0.03647609555118211 -56.23420372516602 0.0046290263254291 0.007224535824765295 -56.27985902633049 -38.77103378769919 -0.018941409783644402 0.03986030003437776 0.02708892522548373 -0.03345073948568719 0.009294933967819215 0.03683848524243288 -0.045881369299847166 0.04273022035171262 -36.668491537141435 -0.0007344400636090866 -0.00790482581373417 0.025153126362159328 0.03289308012919063 0.046028556609800216 0.0031686395533656723 0.026981030259975693 0.04260039249203356 -19.72639766401831 -0.024946965583207262 -0.040827798448777916 -0.021419312409106224 0.03820557247531206 0.040703991609723246 0.009055466274787434 0.01845769742839643 -0.007322978903843141 24.04498421637522 -0.024722688983405513 -0.03955821976760716 28.83846011870578 -0.042955200067891365 0.042602924918641046 28.817421305440767 -0.008899862086653079 0.009975831324773638 9.231383143092424 2.3147262040075662 13.440431357220303 -68.25964889162283 20.43074618719347 -21.81772105152109 -5.697968998621052 -1.9402050343690465 -88.65703808248817 -9.056245137870649 -3.147523996069331 0.359642248065793 -0.4450071905300259 0.024031867326417468 -8.080824172565702 -0.004921666518822373 -0.0054816768596942875 44.57386150628861 -0.01536819623557671 0.007238594893189142 44.575100278428195 12.421011242509271 0.023046583967364156 0.010305590449175245 0.020447404007359216 -0.014454438026959096 0.03694087438484092 0.017709376993875512 -0.03773619782543883 0.004232004709398671 11.06165515164752 -0.011171193299656015 -0.04441232884291103 0.006125410780175988 0.02212879678785182 -0.04903540683180786 0.009820569261826055 0.021725917805196806 -0.0121255749328066 4.77144046969304 0.03907527514841037 0.022554340060563154 -0.012386459324651863 0.026521111306743318 -0.0012494979561693794 0.0238878472214275 0.020224577226144992 -0.026237589983887186 -5.597815138222871 0.0020107257776317603 -0.008936909650734534 -6.702328505125081 0.02510191214923068 0.033612478735097095 -6.750632982093882 0.006416445333986395 -0.03616957351475136 0.005279246863959568 -0.037081096797365605 0.03027108047633818 8.062547214209953 3.483998719547367 -19.22994896749306 -0.01471227597347635 10.42020171527261 0.01681874463173593 -5.646263056483508 -15.627367542482789 3.1554370642027036 0.0009830426515662813 -0.044050010646723654 0.00461743205700822 -0.004278947221433131 4.726809980268512 -0.019807324213355956 12.417291006877296 -8.225842751137124 6.878580361046202 -0.0020329860445005674 46.38418154139779 0.0005903572367146268 -4.2799122169495565 -14.77720567485146 -3.8707608462034857 -0.026005111242046193 -0.02415128398029963 0.025489714699885552 0.006022423156788059 -10.754182246856105 -0.021991224569364018 
-0.01654255077143163 0.017079329157899347 -0.03460509795111639 -0.02618210617875301 0.03495095896238458 0.021648803416588456 3.4554706350653346 4.459373900532048 -1.858771097560666 -0.865620942769953 3.563907037548277 0.41907310316143853 -0.5900118670292394 -0.6267103369634186 -0.3749318168128302 -0.3357038936725928 -0.14197591693231304 -0.5474646725031191 -0.6540217387647635 11.328447121824706 0.183417625293375 -0.009217666725022455 -0.9247367609737962 0.49460636160155996 0.05127159143433595 -17.092671303931073 -0.006407700610666603 -7.232245105062485 2.9058460379803113 -16.00818361436909 74.35985689431907 -0.4255747846873162 8.041866572833277 8.70725739139299 3.716513269541758 87.20576839214591 9.731117814673713 -0.24462514188785786 -2.478114687211201 4.521919227456954 -0.12035874157150028 -1.6086848001884069 0.013844945727525043 -0.01547868474489376 -56.23510223399464 0.04477197498188842 0.007785178509091132 -56.26777917427229 -38.791992336423206 -0.010583906260764952 0.01030970216300117 0.03788228796249567 0.004689167399324159 0.0026360523768190636 -0.03866747697208081 0.02980743748550001 0.00917782069484394 -36.694033319163125 -0.03133525449532293 -0.0178680124119869 0.03910174507900137 -0.001041375536422315 0.026121170005688272 0.034698941637116745 -0.034836377624581846 0.03802917046868541 -19.7885219976339 0.03906242557997097 0.01357255636461607 -0.01498413004735995 -0.018496769313423023 0.0254219884678371 -0.0323517343155228 -0.012150786760793461 -0.01646020798524883 24.064096214020136 0.004807469353290556 0.04701049930949326 28.909088977548386 -0.033793313475397525 -0.0029777960123509887 28.89150091983886 -0.038636276989421944 -0.007346104323159504 9.08090464868824 2.2984016952930135 13.359231724295402 -67.88960491934702 21.48021090875863 -21.61193667059162 -5.085923278420347 -1.6647729239865847 -89.03388129946829 -10.179515798237244 -3.3645824023894946 0.5244926742948404 -0.4369196410003913 0.054609995532151165 -8.140056145755603 -0.0029820968482581053 0.034247225142013726 44.58694930216018 0.017892269807498352 -0.008552344387186382 44.54456858420564 12.481173425127867 0.005554682275770917 0.023110319985638877 0.025117870150981707 0.007030635672160373 0.04831785523083186 0.046732720011552695 -0.04961397142254895 0.006910231921284656 11.084401127757024 0.037701663536465584 -0.01159213366939128 -0.007987119741451082 0.026715815499077374 0.049694999676138 0.030782057402737158 0.03347909246581625 0.04413452899684775 4.747833045547561 -0.011368966846958107 0.02405290033570921 0.033178899799553296 0.04577857419310198 -0.007935627749910463 0.009518685869047538 0.013007283737188456 -0.016514933012974114 -5.59214849736971 0.02075683051836434 -0.048816337313050635 -6.684033955241839 -0.0041807276042571066 -0.02640350853993859 -6.769957004405934 0.031731582096973965 -0.012527983074810248 0.04317025217463231 0.041445103714688306 -0.016254858639807402 8.089044712963823 3.4985517743840293 -19.245955532707985 0.030366568758352454 10.37323618823875 -0.034484933668622486 -5.641303564787199 -15.628783752124527 3.171047324917749 0.006976684947036253 0.014842055631352803 -0.01885558445255226 0.008386629147125468 4.660361069007035 0.018884718817153402 12.454429905186089 -8.225666166498034 6.902838260115371 -0.02005896793415134 46.40782361442384 0.024665326945197297 -4.342508799457903 -14.748783881057498 -3.8224226081516055 -0.033587079607722926 0.026203908943840348 -0.02739949796579513 -0.01186637874913103 -10.786909556043591 0.04849908744210513 
-0.002815083369073698 0.011668694063105377 0.020122318712916705 -0.019623085766555845 -0.009314554627033898 0.0018932432647871943 3.3189132890595574 4.354216691037957 -1.8083323093967374 -0.8596412429685496 3.5314306822658974 0.38525802768123585 -0.630087805763524 -0.6429552070945299 -0.33649648947738114 -0.3498472578433568 -0.20072154500509848 -0.49636195068836264 -0.5433421188585089 11.433855520342446 0.024723768784075326 0.06774498912567131 -0.7911444353158068 0.0439179804750252 0.09946157726147785 -16.752109457277026 0.021397147800913736 -7.313092713604026 2.885851752739512 -16.07682441241352 73.36232947368913 -1.1586623591882128 8.721510807196337 9.691090645528641 3.635561538593274 87.85573849547077 10.336100300063814 -0.257084615391309 -2.690236794803528 4.4896431014338605 -0.10861531014052055 -1.6402284990110432 -0.009532803469107988 -0.046506332962355276 -56.20074056430227 -0.005978697239076212 -0.007046724514737397 -56.23297200929321 -38.77673627756899 0.03566482755632059 0.009317874863171932 -0.03319267774642777 0.020827948853946742 0.033761904973429305 -0.005717181479762287 -0.04513491745439515 -0.02156641845489289 -36.72747456211995 -0.011293188458548853 0.01005678065890807 0.040577508843478494 -0.018590655158713016 -0.008684992133634982 -0.027689917898890345 -0.010895854351268107 -0.03005613267643584 -19.806127277572426 0.008989370647917104 -0.010656814166091084 0.010942250393931895 -0.007140221723354016 0.04001679194578925 -0.03843041460513795 0.0013923482577993399 -0.013154662951920726 24.09260812158549 0.03599313799471459 -0.03388542804032326 28.867725746594594 -0.03521994887091434 -0.04086872898930462 28.835300921960787 0.01816444226399625 0.012271719875784097 8.755953227594667 2.2832502504912324 13.406254732932672 -67.51658631425342 21.907699977721514 -20.92358452470684 -6.074452029042013 -1.4218130192636746 -89.52224908795253 -11.157608779974419 -3.7041735366913437 0.805970898921544 -0.5136218796802289 0.03419889910843373 -8.077105695015131 0.012783402245333269 -0.016783645488270063 44.58294747847034 0.027433760342481853 0.03731443383570403 44.53380010418954 12.45214884758244 0.032602862163981554 -0.002985752596334706 0.041804520345008096 -0.04885493526163781 0.04106981890610392 0.006621778701914948 0.02449958018978971 0.034094996133757355 11.114905792054946 0.024954222619841124 0.03353768041535253 -0.0151507184897374 0.00656706654889555 -0.02706194483442216 0.023236230881054108 0.04351534171505137 -0.04339116483710232 4.787092363477073 -0.03529530905172294 -0.03761466782732222 -0.04056858064580764 -0.020951870092119178 0.02715545189297488 0.01942159815315836 0.01369236624216971 -0.03655825566949807 -5.645689850923894 -0.010326496628675344 0.03101701625526195 -6.674197532955508 -0.006112881543797808 -0.0059090631396332 -6.744482403638487 0.03635182282142477 -0.012494745808755632 0.031191423393270298 -0.04337592774692168 -0.009682634789921322 8.016342774548725 3.44989563635378 -19.226011161968152 0.018243443566846665 10.377863128569 -0.002501843349324788 -5.5803034461261385 -15.652204274319907 3.2361781011220168 -0.04751210058596696 -0.02007992696591488 0.008111561472195454 -0.012496394797335733 4.708569657642441 -0.0019535879017805015 12.43946808878993 -8.279620557308977 6.8750106874202155 -0.049485855991285195 46.33434649886048 -0.033099833061161134 -4.338264731329252 -14.797944503694358 -3.8754120953235778 -0.04423464458987889 0.01992746777104089 -0.029972876997316857 0.030021318340632392 -10.741343006784472 0.02736876164231869 
